#!OML:ASF E:\emotionWalksFemale\Project 1\Capture day 1\Session 1\Female1.ASF
:FULLY-SPECIFIED
:DEGREES
424
root 9.38263 13.1239 23.0109 203.581 -12.3326 -178.547
lowerback 23.4149 1.67328 1.26911
upperback -2.17577 2.52936 -0.0345967
thorax -15.7069 0.986023 -1.67753
lowerneck -12.4041 -1.07885 -3.09925
upperneck -17.9906 -3.48922 0.510124
head -3.7628 -2.57293 0.746534
rclavicle -5.86415e-015 1.05356e-014
rhumerus 20.6436 13.7295 -79.4183
rradius 34.2926
rwrist 22.2787
rhand -5.99339 -60.7262
rfingers 7.12502
rthumb 19.8387 270.266
lclavicle -5.86415e-015 1.05356e-014
lhumerus -37.7122 7.99896 76.1355
lradius 38.2541
lwrist -15.5686
lhand -6.08163 -41.2327
lfingers 7.12502
lthumb 19.7539 -12.2165
rfemur -60.4317 -0.193661 29.6279
rtibia 77.5277
rfoot -35.7893 -28.5447
rtoes 2.22866
lfemur -68.0577 -1.70945 -17.6077
ltibia 78.3683
lfoot -33.5072 -4.67332
ltoes -29.0771
425
root 9.41246 13.2147 22.9787 203.277 -13.3773 -178.639
lowerback 23.2822 1.74081 1.86774
upperback -2.46595 2.79443 -0.135649
thorax -15.9377 1.04379 -2.23648
lowerneck -12.7117 -1.18262 -3.1201
upperneck -17.1286 -3.47935 0.250025
head -3.40016 -2.5022 0.636195
rclavicle -6.16232e-015 1.07344e-014
rhumerus 24.9848 15.6866 -77.1847
rradius 36.429
rwrist 21.4667
rhand -2.32304 -63.1076
rfingers 7.12502
rthumb 23.3635 91.7096
lclavicle -6.16232e-015 1.07344e-014
lhumerus -38.4886 6.49499 74.7344
lradius 40.1855
lwrist -14.7155
lhand -4.67265 -41.7147
lfingers 7.12502
lthumb 21.1079 -12.8436
rfemur -59.2903 -1.03438 29.953
rtibia 76.2579
rfoot -35.4154 -28.4176
rtoes 2.50245
lfemur -67.1264 -1.92468 -17.5209
ltibia 77.1231
lfoot -32.6188 -5.50686
ltoes -28.744
426
root 9.44572 13.3261 22.9334 202.775 -14.2631 -178.679
lowerback 22.4644 1.98944 1.98103
upperback -2.29986 3.15033 -0.0349916
thorax -15.2364 1.22024 -2.26793
lowerneck -12.9154 -1.17051 -3.02851
upperneck -16.7235 -3.42824 -0.188717
head -3.23052 -2.44323 0.464488
rclavicle 2.98177e-015 -5.56597e-015
rhumerus 29.9785 17.5013 -73.8776
rradius 38.7851
rwrist 19.6566
rhand -1.29985 -63.7087
rfingers 7.12502
rthumb 24.3448 92.1825
lclavicle 2.98177e-015 -5.56597e-015
lhumerus -38.8292 4.81787 73.8265
lradius 42.6752
lwrist -13.7033
lhand -2.85731 -42.3259
lfingers 7.12502
lthumb 22.8509 -13.6596
rfemur -57.7237 -1.76865 30.2719
rtibia 74.7382
rfoot -35.1115 -28.193
rtoes 3.22994
lfemur -65.8053 -1.84798 -17.5114
ltibia 75.7351
lfoot -31.7266 -6.1605
ltoes -29.2252
427
root 9.47876 13.4483 22.8797 202.228 -15.1283 -178.658
lowerback 21.8753 2.23408 2.07756
upperback -2.26191 3.50512 0.0672174
thorax -14.8282 1.39174 -2.2962
lowerneck -13.031 -1.12403 -2.68421
upperneck -16.3137 -3.38333 -0.885871
head -3.083 -2.39565 0.170185
rclavicle -2.68359e-014 -1.78906e-014
rhumerus 34.5341 18.834 -70.4129
rradius 41.1715
rwrist 18.1144
rhand -3.35473 -61.7254
rfingers 7.12502
rthumb 22.3735 90.4498
lclavicle -2.68359e-014 -1.78906e-014
lhumerus -39.6328 2.50289 73.0049
lradius 45.892
lwrist -12.2699
lhand -1.14683 -42.5018
lfingers 7.12502
lthumb 24.4915 -14.0478
rfemur -55.978 -2.60476 30.6486
rtibia 72.9503
rfoot -34.357 -27.9573
rtoes 3.33762
lfemur -64.389 -1.72493 -17.4698
ltibia 74.2137
lfoot -30.7081 -6.75769
ltoes -29.6573
428
root 9.51195 13.5698 22.8229 201.779 -16.2407 -178.583
lowerback 21.2643 2.34249 2.22117
upperback -2.43349 3.70448 0.192144
thorax -14.6632 1.48639 -2.27599
lowerneck -12.7109 -0.914827 -2.02287
upperneck -15.9915 -3.15039 -1.71143
head -3.04499 -2.25468 -0.206471
rclavicle -6.55989e-015 -2.62396e-014
rhumerus 38.4986 19.8217 -67.1565
rradius 43.5262
rwrist 15.9258
rhand -4.18857 -61.8707
rfingers 7.12502
rthumb 21.5729 90.6892
lclavicle -6.55989e-015 -2.62396e-014
lhumerus -41.0963 -0.1101 71.9993
lradius 49.524
lwrist -10.7471
lhand 0.44978 -42.5746
lfingers 7.12502
lthumb 26.0211 -14.3365
rfemur -54.3102 -3.65668 31.1571
rtibia 70.9888
rfoot -33.0326 -27.9349
rtoes 1.97994
lfemur -63.1504 -1.80354 -17.2562
ltibia 72.6146
lfoot -29.2821 -7.56484
ltoes -29.5458
429
root 9.54592 13.7265 22.7467 200.703 -17.3609 -178.399
lowerback 21.2685 2.37707 2.18307
upperback -2.68616 3.77547 0.332392
thorax -14.9777 1.52175 -2.12766
lowerneck -11.8345 -0.584027 -0.926685
upperneck -15.5213 -2.70379 -2.41066
head -3.04503 -1.99663 -0.609728
rclavicle 8.13029e-014 -1.59028e-014
rhumerus 41.7783 21.1862 -63.8231
rradius 45.9301
rwrist 13.8461
rhand -3.61263 -62.7794
rfingers 7.12502
rthumb 22.1259 91.5333
lclavicle 8.13029e-014 -1.59028e-014
lhumerus -43.172 -2.47057 70.5475
lradius 53.049
lwrist -9.95538
lhand 2.08079 -43.3711
lfingers 7.12502
lthumb 27.5818 -15.3722
rfemur -51.618 -4.66338 31.6706
rtibia 68.6727
rfoot -31.8244 -28.0207
rtoes 0.490706
lfemur -60.9487 -1.67854 -16.9563
ltibia 70.7927
lfoot -27.7033 -8.79824
ltoes -28.8006
430
root 9.57897 13.8825 22.6821 200.092 -19.0666 -178.489
lowerback 21.2634 2.33198 2.76367
upperback -3.00451 3.88183 0.285406
thorax -15.3102 1.50716 -2.55719
lowerneck -11.9 -0.667944 -0.65687
upperneck -14.5885 -2.67331 -2.62776
head -2.71499 -1.93214 -0.733519
rclavicle -2.34566e-014 7.15625e-015
rhumerus 44.6203 21.8484 -59.6631
rradius 48.4806
rwrist 11.4472
rhand -4.74218 -59.9455
rfingers 7.12502
rthumb 21.0411 271.176
lclavicle -2.34566e-014 7.15625e-015
lhumerus -44.4713 -5.25138 69.5574
lradius 56.0818
lwrist -9.46123
lhand 3.24229 -43.9764
lfingers 7.12502
lthumb 28.6921 -16.1601
rfemur -49.5386 -6.23654 32.0287
rtibia 66.2587
rfoot -30.7283 -27.516
rtoes 0.934237
lfemur -59.3253 -2.15383 -16.7987
ltibia 68.8078
lfoot -25.705 -10.2157
ltoes -26.9002
